<svg width="360" height="360" viewBox="0 0 360 360" fill="none" xmlns="http://www.w3.org/2000/svg">
<g clip-path="url(#clip0_5_2386)">
<path d="M338.235 179.5C338.235 267.17 267.166 338.239 179.497 338.239C91.8292 338.239 20.7582 267.171 20.7582 179.5C20.7582 91.8316 91.8272 20.7616 179.497 20.7616C267.166 20.7616 338.235 91.8316 338.235 179.5Z" fill="#04A9BF" fill-opacity="0.08"/>
<path d="M227.808 331.773C227.808 331.773 177.848 347.684 127.176 330.436C127.176 330.436 156.31 326.144 169.962 318.371C183.613 310.597 227.808 331.773 227.808 331.773Z" fill="white"/>
<path d="M269.9 268.876C269.9 268.876 268.956 241.476 268.483 228.722C268.01 215.967 272.734 207.463 266.593 195.654C260.452 183.843 265.175 174.395 259.507 173.923C253.839 173.451 235.887 170.143 225.967 173.923C216.046 177.702 194.315 161.167 193.843 150.303C193.371 139.438 190.065 131.407 190.065 131.407C190.065 131.407 202.347 111.607 205.654 112.295C208.96 112.983 209.433 99.7556 211.795 98.811C214.158 97.8653 239.194 91.2518 246.28 91.2518C253.366 91.2518 248.17 98.811 248.17 98.811L269.9 106.839L273.68 98.3351L292.576 104.004C292.576 104.004 292.104 92.6662 287.852 91.2487C283.599 89.8323 265.648 81.3285 265.648 81.3285C265.648 81.3285 269.429 88.4148 267.538 90.3041C265.648 92.1944 259.507 81.3285 259.507 81.3285L245.809 76.1325C245.809 76.1325 236.36 77.5499 231.163 79.4392C225.967 81.3285 223.605 90.3041 223.605 90.3041C223.605 90.3041 214.158 95.0283 208.016 93.6109C201.874 92.1944 203.763 80.3839 203.763 80.3839C203.763 80.3839 215.101 79.4392 216.046 76.1325C216.99 72.8257 208.016 66.684 208.016 66.684L215.101 63.3773L221.715 51.8319L232.108 52.9852L235.414 40.7018L234.585 28.5664C234.585 28.5664 303.755 61.0871 325.564 114.905L314.306 107.784L319.03 118.177L320.919 116.759L326.588 127.151V135.655L323.754 148.72C323.754 148.72 305.751 118.349 297.299 110.617C297.299 110.617 309.59 138.961 324.227 153.606L328.95 148.72V171.573L324.699 181.494L319.503 197.083L318.557 209.366V224.01L311.471 231.095L304.385 236.293V242.434L297.299 251.894L287.379 262.286L277.459 268.901H269.9V268.876Z" fill="#84BF04" fill-opacity="0.47" stroke="#84BF04" stroke-opacity="0.47" stroke-width="0.9144" stroke-linecap="round" stroke-linejoin="round"/>
<path d="M133.293 322.656L123.845 310.373L125.263 303.759H131.403L130.094 296.986L131.876 288.169L133.293 281.557L138.637 275.999C138.637 275.999 150.773 271.163 149.356 254.156C149.356 254.156 159.747 239.984 157.386 232.427C155.023 224.868 140.79 225.34 140.79 225.34L117.232 215.42C117.232 215.42 115.342 205.499 108.729 204.554C102.114 203.61 100.225 208.334 97.3902 204.554C94.5553 200.775 90.6307 195.104 83.1456 194.633C75.6604 194.162 66.212 188.021 66.212 188.021C66.212 188.021 64.7945 182.825 56.7645 184.715C56.7645 184.715 51.5675 179.517 53.9296 169.124C53.9296 169.124 53.4578 163.456 46.3704 165.818C46.3704 165.818 40.7026 159.676 38.8123 159.676C36.923 159.676 34.0881 141.725 42.5929 133.694C42.5929 133.694 50.6228 124.246 59.5995 129.915C59.5995 129.915 59.1256 138.891 60.5431 143.142C61.9606 147.394 64.7945 137 64.7945 137L65.2673 123.773C65.2673 123.773 71.409 120.939 76.6061 116.215C81.8011 111.491 79.9118 105.349 86.9981 100.626C94.0834 95.902 95.5009 100.626 95.5009 100.626L95.9727 92.5952H102.587L118.649 85.5089C118.649 85.5089 111.09 85.9818 108.256 81.7293L128.568 70.8644V64.7238L127.176 51.9686L122.428 57.6374L121.484 51.9686L112.508 50.8163H109.202L101.643 54.3307L101.17 59.0549L92.667 62.8335L88.4146 58.5821L91.7224 54.3307L95.0281 50.8163L103.833 38.8957C103.833 38.8957 45.4391 71.6487 28.4264 129.599C28.4264 129.599 27.4756 147.866 27.0038 154.48C26.5309 161.093 32.1988 167.234 32.1988 167.234H37.3958L39.2851 171.958L43.5365 173.376L45.8996 174.793L47.3161 178.476L49.2054 185.186L53.4578 186.132L55.8189 190.382L58.6538 190.855L57.7092 187.077H61.4888L62.9052 190.382L58.6538 193.689L57.2364 196.997L56.7645 204.554L57.2364 210.224L57.7092 215.42L53.4578 217.782L54.4014 222.978L54.8752 226.285V231.482L52.5121 232.427L69.5187 255.574L74.7158 257.464L78.0215 257.936L83.2185 259.826L87.471 267.856C87.471 267.856 101.17 298.092 103.06 302.342C104.949 306.581 124.791 324.061 133.293 322.643" fill="#84BF04" fill-opacity="0.47"/>
<path d="M133.293 322.656L123.845 310.373L125.263 303.759H131.403L130.094 296.986L131.876 288.169L133.293 281.557L138.637 275.999C138.637 275.999 150.773 271.163 149.356 254.156C149.356 254.156 159.747 239.984 157.386 232.427C155.023 224.868 140.79 225.34 140.79 225.34L117.232 215.42C117.232 215.42 115.342 205.499 108.729 204.554C102.114 203.61 100.225 208.334 97.3902 204.554C94.5553 200.775 90.6307 195.104 83.1456 194.633C75.6604 194.162 66.212 188.021 66.212 188.021C66.212 188.021 64.7945 182.825 56.7645 184.715C56.7645 184.715 51.5675 179.517 53.9296 169.124C53.9296 169.124 53.4578 163.456 46.3704 165.818C46.3704 165.818 40.7026 159.676 38.8123 159.676C36.923 159.676 34.0881 141.725 42.5929 133.694C42.5929 133.694 50.6228 124.246 59.5995 129.915C59.5995 129.915 59.1256 138.891 60.5431 143.142C61.9606 147.394 64.7945 137 64.7945 137L65.2673 123.773C65.2673 123.773 71.409 120.939 76.6061 116.215C81.8011 111.491 79.9118 105.349 86.9981 100.626C94.0834 95.902 95.5009 100.626 95.5009 100.626L95.9727 92.5952H102.587L118.649 85.5089C118.649 85.5089 111.09 85.9817 108.256 81.7293L128.568 70.8644V64.7238L127.176 51.9686L122.428 57.6374L121.484 51.9686L112.508 50.8163H109.202L101.643 54.3307L101.17 59.0549L92.667 62.8335L88.4146 58.5821L91.7224 54.3307L95.0281 50.8163L103.833 38.8957C103.833 38.8957 45.4391 71.6487 28.4264 129.599C28.4264 129.599 27.4756 147.866 27.0038 154.48C26.5309 161.093 32.1988 167.234 32.1988 167.234H37.3958L39.2851 171.958L43.5365 173.376L45.8996 174.793L47.3161 178.476L49.2054 185.186L53.4578 186.132L55.8189 190.382L58.6538 190.855L57.7092 187.077H61.4888L62.9052 190.382L58.6538 193.689L57.2364 196.997L56.7645 204.554L57.2364 210.224L57.7092 215.42L53.4578 217.782L54.4014 222.978L54.8752 226.285V231.482L52.5121 232.427L69.5187 255.574L74.7158 257.464L78.0215 257.936L83.2185 259.826L87.471 267.856C87.471 267.856 101.17 298.092 103.06 302.342C104.949 306.581 124.791 324.061 133.293 322.643" stroke="#84BF04" stroke-opacity="0.47" stroke-width="0.9144" stroke-linecap="round" stroke-linejoin="round"/>
<path d="M179.497 19.7337C231.989 19.7337 260.999 42.2313 260.999 42.2313C260.999 42.2313 241.491 50.6066 211.258 42.2313C211.258 42.2313 187.936 43.3579 171.523 50.2685C155.112 57.179 146.405 39.0397 146.405 39.0397C146.405 39.0397 132.034 48.9157 107.294 37.0672C107.294 37.0672 139.962 19.7337 179.497 19.7337Z" fill="white"/>
<path d="M104.68 171.519C113.472 171.519 120.599 164.731 120.599 156.358C120.599 147.985 113.472 141.197 104.68 141.197C95.8879 141.197 88.7607 147.985 88.7607 156.358C88.7607 164.731 95.8879 171.519 104.68 171.519Z" fill="#262626"/>
<path d="M257.503 171.519C266.295 171.519 273.423 164.731 273.423 156.358C273.423 147.985 266.295 141.197 257.503 141.197C248.712 141.197 241.584 147.985 241.584 156.358C241.584 164.731 248.712 171.519 257.503 171.519Z" fill="#262626"/>
<path d="M217.335 182.255C214.319 213.483 148.5 214.703 144.562 182.255" stroke="#262626" stroke-width="2" stroke-linecap="round" stroke-linejoin="round"/>
</g>
<defs>
<clipPath id="clip0_5_2386">
<rect width="360" height="360" fill="white"/>
</clipPath>
</defs>
</svg>
