<svg width="96" height="118" viewBox="0 0 96 118" fill="none" xmlns="http://www.w3.org/2000/svg">
<g filter="url(#filter0_b_44_43)">
<path d="M16.0671 49.0278C13.828 34.3254 68.3685 34.3254 73.8059 44.3135C79.2432 54.3016 73.8059 92.8272 65.897 95.681C57.9881 98.5347 49.0906 100.13 35.7443 98.0591C22.3981 95.9878 18.3061 63.7303 16.0671 49.0278Z" fill="#BF9B7A"/>
</g>
<g opacity="0.3" filter="url(#filter1_f_44_43)">
<path d="M24.9643 39.7864C24.9643 39.7864 27.3294 33.8072 26.9246 32.6717C26.5957 31.7492 26.1465 31.1576 26.9584 30.6728C27.6969 30.232 36.9464 28.1382 40.2963 27.4698C43.646 26.8013 53.2255 24.8085 54.2226 25.2321C55.2197 25.6557 54.6121 26.1505 54.8179 27.1055C55.0053 27.9745 59.5784 32.879 59.5784 32.879L70.3593 82.897C70.3593 82.897 70.1437 84.1413 68.588 85.2295C67.5552 85.9519 67.1162 86.7442 67.1526 87.2005C66.9123 88.8391 58.7443 90.3841 54.071 91.3767C51.962 91.7976 41.9379 93.8131 41.0891 92.7367C40.5057 91.9971 40.1161 91.6381 39.6283 91.4687C38.6846 91.1391 35.8744 90.4 35.7457 89.8032L24.9648 39.7851L24.9643 39.7864Z" stroke="black"/>
</g>
<path d="M25.8651 39.6065L25.8572 39.5699C25.7956 39.2382 25.8379 38.7766 26.0072 38.1744C26.1792 37.5627 26.4523 36.9055 26.7509 36.2341C26.8192 36.0805 26.8899 35.924 26.9609 35.7668C27.1868 35.2668 27.4158 34.7596 27.5808 34.3182C27.6912 34.023 27.7905 33.7129 27.8439 33.4141C27.8942 33.1322 27.9254 32.7486 27.7892 32.3666L27.7892 32.3665C27.7251 32.1868 27.6504 32.0018 27.5909 31.8544C27.5679 31.7977 27.5473 31.7465 27.5304 31.7034C27.5017 31.6303 27.4803 31.5724 27.4645 31.5261C27.4661 31.5255 27.4677 31.5249 27.4693 31.5243C27.5555 31.4929 27.676 31.4532 27.8325 31.4055C28.1445 31.3103 28.565 31.1935 29.0715 31.0605C30.0825 30.795 31.4029 30.4734 32.811 30.1432C35.628 29.4826 38.7663 28.7947 40.4266 28.4633C40.736 28.4016 41.0971 28.3289 41.4986 28.248C43.2826 27.8886 45.8651 27.3684 48.2535 26.9385C49.7175 26.675 51.0926 26.4485 52.1568 26.3141C52.6909 26.2467 53.1283 26.2048 53.4513 26.1913C53.6136 26.1845 53.7292 26.1857 53.8043 26.1907C53.8115 26.1912 53.8179 26.1917 53.8237 26.1922C53.8758 26.2157 53.9175 26.2363 53.9505 26.2538C53.9234 26.3756 53.8726 26.5408 53.7878 26.7876C53.6116 27.3008 53.7871 27.7699 53.9292 28.0449C54.0818 28.34 54.3032 28.62 54.5231 28.8664C54.9433 29.3371 55.522 29.8622 56.0732 30.3624C56.101 30.3877 56.1288 30.4128 56.1564 30.4379C56.7558 30.9821 57.3343 31.5116 57.789 32.0138C58.2732 32.5486 58.477 32.9053 58.5179 33.093C58.7899 34.3406 61.8918 48.737 64.9947 63.1375C66.5244 70.2368 68.0543 77.3371 69.2454 82.8635C69.215 82.9439 69.1679 83.0523 69.097 83.18C68.9149 83.5078 68.5691 83.9754 67.9227 84.4275C67.325 84.8456 66.8665 85.306 66.5548 85.7655C66.3165 86.1169 66.1169 86.539 66.0751 86.9799C66.0575 86.9963 66.0341 87.0166 66.0035 87.0407C65.8386 87.1705 65.5641 87.3305 65.1613 87.5109C64.3617 87.869 63.233 88.2306 61.9189 88.5844C59.7828 89.1595 57.284 89.6816 55.1552 90.1263C54.6729 90.2271 54.2097 90.3239 53.774 90.4164L53.7077 90.4296C52.5914 90.6525 49.6514 91.2394 46.867 91.6479C45.4394 91.8574 44.0823 92.0154 43.0438 92.0574C42.5202 92.0786 42.1168 92.0683 41.841 92.0322C41.7735 92.0234 41.722 92.014 41.6841 92.0057C41.1284 91.317 40.6036 90.7999 39.8668 90.5441L39.5479 91.4848L39.8668 90.5441C39.6642 90.4737 39.3843 90.3865 39.0863 90.2936C39.0086 90.2694 38.9297 90.2448 38.8506 90.22C38.4544 90.0959 38.0275 89.9593 37.6302 89.8166C37.2252 89.6711 36.8885 89.5323 36.6591 89.4097C36.6336 89.3961 36.6112 89.3836 36.5916 89.3722L25.8651 39.6065ZM27.3438 31.5864C27.3437 31.5864 27.344 31.5862 27.3445 31.5858L27.3438 31.5864ZM53.8607 26.1966C53.8607 26.1966 53.8591 26.1964 53.8561 26.1958C53.8593 26.1963 53.8608 26.1966 53.8607 26.1966ZM66.1209 86.9317C66.1219 86.9303 66.1224 86.9295 66.1225 86.9295C66.1225 86.9295 66.122 86.9303 66.1209 86.9317ZM41.5995 91.9817C41.5996 91.9817 41.6022 91.9826 41.6068 91.9848C41.6017 91.9829 41.5994 91.9818 41.5995 91.9817ZM36.4794 89.2988C36.4709 89.2915 36.4734 89.2924 36.483 89.3017C36.4815 89.3006 36.4803 89.2996 36.4794 89.2988Z" stroke="black" stroke-width="2"/>
<path d="M43.7704 26.7732C42.3743 27.0497 41.1367 27.3026 40.2925 27.4711C36.9153 28.1451 27.5903 30.2533 26.8442 30.6956C26.131 31.1189 26.3809 31.6202 26.6752 32.3518C26.7316 32.1847 26.8603 32.0325 27.1015 31.8894C27.8465 31.4472 37.1721 29.3389 40.5497 28.6648C43.9269 27.9909 53.5838 25.9821 54.588 26.4043C54.7089 26.4552 54.804 26.5058 54.8824 26.5595C54.9023 25.9314 55.1331 25.5479 54.3307 25.2105C53.5774 24.8939 47.9582 25.9438 43.77 26.7732L43.7704 26.7732Z" fill="#030303"/>
<path d="M44.2244 30.9367C42.8283 31.2132 41.5908 31.4662 40.7465 31.6347C37.3693 32.3086 28.0443 34.4168 27.2982 34.8592C26.585 35.2824 26.8349 35.7838 27.1293 36.5154C27.1857 36.3483 27.3143 36.196 27.5555 36.0529C28.3005 35.6107 37.6261 33.5024 41.0038 32.8284C44.3809 32.1545 54.0378 30.1457 55.042 30.5678C55.1629 30.6187 55.258 30.6694 55.3364 30.7231C55.3563 30.095 55.5871 29.7114 54.7847 29.374C54.0314 29.0575 48.4122 30.1074 44.224 30.9368L44.2244 30.9367Z" fill="#030303"/>
<defs>
<filter id="filter0_b_44_43" x="6" y="27.3268" width="80" height="81.6734" filterUnits="userSpaceOnUse" color-interpolation-filters="sRGB">
<feFlood flood-opacity="0" result="BackgroundImageFix"/>
<feGaussianBlur in="BackgroundImage" stdDeviation="5"/>
<feComposite in2="SourceAlpha" operator="in" result="effect1_backgroundBlur_44_43"/>
<feBlend mode="normal" in="SourceGraphic" in2="effect1_backgroundBlur_44_43" result="shape"/>
</filter>
<filter id="filter1_f_44_43" x="0.0432148" y="0.243822" width="95.2581" height="117.735" filterUnits="userSpaceOnUse" color-interpolation-filters="sRGB">
<feFlood flood-opacity="0" result="BackgroundImageFix"/>
<feBlend mode="normal" in="SourceGraphic" in2="BackgroundImageFix" result="shape"/>
<feGaussianBlur stdDeviation="12.2156" result="effect1_foregroundBlur_44_43"/>
</filter>
</defs>
</svg>
