<svg width="65" height="90" viewBox="0 0 65 90" fill="none" xmlns="http://www.w3.org/2000/svg">
<g filter="url(#filter0_b_44_195)">
<path d="M0.350807 40.5C0.350811 30.3718 59.2193 39.4351 63.4233 46C67.6272 52.5649 63.2855 83.0479 52.06 86.4913C40.8344 89.9347 34.2459 91.1854 15.3027 88.6862C-3.64049 86.1869 0.350803 50.6282 0.350807 40.5Z" fill="#BCCF43"/>
</g>
<path d="M13.1837 73.6724L35.3573 3.32315C35.4083 3.32868 35.4623 3.3348 35.5193 3.34152C36.1749 3.41888 37.1316 3.56521 38.3251 3.77375C40.7072 4.19 43.983 4.84541 47.5765 5.66396C51.1697 6.48245 54.3921 7.30724 56.6999 7.95928C57.8562 8.28596 58.7709 8.56592 59.3842 8.7776C59.4375 8.79601 59.4879 8.81367 59.5353 8.83057L37.3617 79.1798C37.242 79.5596 36.7644 80.1978 34.6443 80.3906C32.5645 80.5796 29.2951 80.2782 24.4093 79.1653C19.5236 78.0524 16.5148 76.9237 14.8249 75.876C13.1022 74.8079 13.064 74.0522 13.1837 73.6724Z" stroke="black" stroke-width="2"/>
<path d="M51.5932 4.27209C51.9984 4.3885 52.3062 4.49136 52.5087 4.57863C52.4851 4.63462 52.4629 4.69464 52.4433 4.75682C52.4154 4.84533 52.3786 4.9836 52.35 5.10557C52.3418 5.14049 52.3338 5.1762 52.3266 5.21078C50.9718 4.88799 49.5082 4.54415 47.9811 4.19631C46.455 3.84868 44.9984 3.52733 43.6388 3.2318C43.6522 3.20021 43.6654 3.1677 43.678 3.13597C43.7252 3.01654 43.774 2.88006 43.8028 2.78863C43.8223 2.72665 43.8396 2.66405 43.8534 2.60374C43.9542 2.60797 44.082 2.61865 44.2382 2.63732C44.7555 2.69913 45.4839 2.83534 46.3529 3.01932C46.7311 3.09938 47.1251 3.19105 47.5425 3.28817C47.7609 3.339 47.9858 3.39132 48.2182 3.44425C49.552 3.74809 50.7446 4.02829 51.5932 4.27209ZM52.6974 4.67571C52.6983 4.67639 52.6991 4.67699 52.6997 4.67751C52.7101 4.68599 52.707 4.68529 52.6974 4.67571Z" stroke="black"/>
<path d="M28.4948 25.0959L35.3311 3.40668C35.3577 3.41188 35.3849 3.41721 35.4127 3.42268C36.0715 3.55221 37.0271 3.7511 38.212 4.0051C40.5802 4.51274 43.8478 5.23697 47.4523 6.05803C51.0566 6.87903 54.3123 7.64073 56.6619 8.20772C57.8375 8.49142 58.7821 8.72539 59.4289 8.89324C59.4562 8.90033 59.4829 8.90728 59.509 8.9141C58.9269 10.7609 58.3171 12.6952 57.6881 14.6904C56.093 19.7499 54.3747 25.2001 52.6727 30.6033C52.5919 30.6061 52.4977 30.6074 52.3888 30.6064C51.7455 30.6007 50.7963 30.5195 49.594 30.3618C47.2009 30.0479 43.9242 29.4472 40.3377 28.6303C36.7515 27.8134 33.5604 26.9408 31.3032 26.1954C30.1692 25.8209 29.2995 25.4878 28.7389 25.2193C28.644 25.1738 28.563 25.1326 28.4948 25.0959ZM53.0225 30.5701C53.0258 30.5692 53.0275 30.5688 53.0275 30.5688C53.0275 30.5688 53.0259 30.5693 53.0225 30.5701ZM28.2078 24.9152C28.2079 24.9152 28.2091 24.9163 28.2114 24.9185C28.2089 24.9163 28.2078 24.9152 28.2078 24.9152Z" stroke="black" stroke-width="2"/>
<path d="M43.8081 16.4726C43.5427 16.4121 43.2717 16.5451 43.2006 16.7708L42.456 19.1332L39.6771 18.5002C39.4116 18.4397 39.1407 18.5727 39.0695 18.7984L38.8898 19.3686C38.8187 19.5943 38.9751 19.8246 39.2406 19.885L42.0195 20.518L41.2749 22.8805C41.2038 23.1061 41.3602 23.3365 41.6256 23.3969L42.2964 23.5497C42.5619 23.6102 42.8328 23.4772 42.9039 23.2515L43.6485 20.8891L46.4275 21.5221C46.693 21.5826 46.9639 21.4496 47.035 21.224L47.2147 20.6537C47.2859 20.4281 47.1295 20.1977 46.864 20.1373L44.085 19.5043L44.8297 17.1418C44.9008 16.9162 44.7444 16.6859 44.4789 16.6254L43.8081 16.4726Z" fill="url(#paint0_linear_44_195)"/>
<defs>
<filter id="filter0_b_44_195" x="-10" y="25.9615" width="85" height="74.0385" filterUnits="userSpaceOnUse" color-interpolation-filters="sRGB">
<feFlood flood-opacity="0" result="BackgroundImageFix"/>
<feGaussianBlur in="BackgroundImage" stdDeviation="5"/>
<feComposite in2="SourceAlpha" operator="in" result="effect1_backgroundBlur_44_195"/>
<feBlend mode="normal" in="SourceGraphic" in2="effect1_backgroundBlur_44_195" result="shape"/>
</filter>
<linearGradient id="paint0_linear_44_195" x1="47.6348" y1="20.9693" x2="39.0974" y2="18.2784" gradientUnits="userSpaceOnUse">
<stop stop-color="#4B4B4B"/>
<stop offset="0.4" stop-color="#18171A"/>
<stop offset="1"/>
</linearGradient>
</defs>
</svg>
