<svg width="65" height="90" viewBox="0 0 65 90" fill="none" xmlns="http://www.w3.org/2000/svg">
<g filter="url(#filter0_b_44_195)">
<path d="M0.350807 40.497C0.350811 30.3682 59.2193 39.432 63.4233 45.9973C67.6272 52.5626 63.2855 83.0474 52.06 86.491C40.8344 89.9346 34.2459 91.1854 15.3027 88.686C-3.64049 86.1866 0.350803 50.6258 0.350807 40.497Z" fill="#BCCF43"/>
</g>
<path d="M27.5 27.9962C28 28.4962 37.5 32.4962 52 33.9962" stroke="black" stroke-width="2"/>
<path d="M13.975 71.7209L13.9757 71.7187L35.3592 3.31806C35.4096 3.32353 35.463 3.32958 35.5193 3.33623C36.1749 3.41359 37.1317 3.55992 38.3251 3.76848C40.7072 4.18475 43.983 4.8402 47.5765 5.6588C51.1697 6.47734 54.3921 7.30217 56.6999 7.95426C57.8562 8.28096 58.7709 8.56093 59.3842 8.77262C59.4375 8.79104 59.4879 8.8087 59.5353 8.8256L37.5465 78.5929C37.4817 78.6057 37.4114 78.619 37.3357 78.6327C36.7983 78.73 35.9874 78.8451 34.9287 78.9061C32.8125 79.0281 29.7014 78.9341 25.8006 78.0455C22.1428 77.2122 18.9592 75.8841 16.7916 74.5398C15.703 73.8646 14.9119 73.2107 14.4406 72.6466C13.928 72.0329 13.9676 71.7444 13.975 71.7209Z" stroke="black" stroke-width="2"/>
<path d="M52.2723 4.54488C52.3782 4.58703 52.4608 4.62335 52.5247 4.65369L52.3491 5.21094C50.988 4.88657 49.5166 4.54083 47.9811 4.19104C46.455 3.84339 44.9984 3.52202 43.6388 3.22648C43.6522 3.19489 43.6654 3.16237 43.678 3.13064C43.7252 3.01121 43.774 2.87473 43.8028 2.7833C43.824 2.71612 43.8424 2.64821 43.8567 2.58328C43.9401 2.5902 44.05 2.60254 44.1935 2.62324C44.8688 2.72059 46.0976 2.97111 48.3523 3.47218C50.5932 3.97018 51.717 4.32385 52.2723 4.54488ZM43.6387 2.57873C43.637 2.57905 43.6362 2.57918 43.6361 2.57916C43.6361 2.57914 43.6369 2.57897 43.6387 2.57873Z" stroke="black"/>
<path d="M43.8081 16.4681C43.5426 16.4077 43.2717 16.5406 43.2006 16.7663L42.456 19.1287L39.6771 18.4957C39.4116 18.4352 39.1407 18.5682 39.0696 18.7938L38.8898 19.3641C38.8187 19.5898 38.9751 19.8201 39.2406 19.8805L42.0195 20.5136L41.275 22.876C41.2038 23.1017 41.3603 23.332 41.6257 23.3925L42.2965 23.5453C42.5619 23.6057 42.8329 23.4728 42.904 23.2471L43.6486 20.8847L46.4275 21.5177C46.693 21.5782 46.9639 21.4452 47.035 21.2196L47.2147 20.6493C47.2859 20.4237 47.1294 20.1933 46.864 20.1329L44.085 19.4998L44.8296 17.1374C44.9007 16.9117 44.7443 16.6814 44.4789 16.6209L43.8081 16.4681Z" fill="url(#paint0_linear_44_195)"/>
<defs>
<filter id="filter0_b_44_195" x="-10" y="25.9583" width="85" height="74.0417" filterUnits="userSpaceOnUse" color-interpolation-filters="sRGB">
<feFlood flood-opacity="0" result="BackgroundImageFix"/>
<feGaussianBlur in="BackgroundImage" stdDeviation="5"/>
<feComposite in2="SourceAlpha" operator="in" result="effect1_backgroundBlur_44_195"/>
<feBlend mode="normal" in="SourceGraphic" in2="effect1_backgroundBlur_44_195" result="shape"/>
</filter>
<linearGradient id="paint0_linear_44_195" x1="47.6348" y1="20.965" x2="39.0973" y2="18.2741" gradientUnits="userSpaceOnUse">
<stop stop-color="#4B4B4B"/>
<stop offset="0.4" stop-color="#18171A"/>
<stop offset="1"/>
</linearGradient>
</defs>
</svg>
