<svg width="70" height="100" viewBox="0 0 70 100" fill="none" xmlns="http://www.w3.org/2000/svg">
<g filter="url(#filter0_b_5_2485)">
<path d="M5.87037 46.8852C3.5073 30.7131 69.4871 41.0363 69.4871 49.0367C69.4871 57.037 72.504 76.092 63.9042 87.2107C55.3044 98.3295 21.674 100.101 13.1505 90.1288C4.62696 80.1563 8.23345 63.0573 5.87037 46.8852Z" fill="#8EC712"/>
</g>
<path d="M11.546 10.638L11.5856 10.5928L16.5247 8.02889L17.8085 11.1488L17.9236 11.4285L18.1668 11.5813C18.2842 11.6551 18.4051 11.7268 18.5149 11.792C18.5306 11.8012 18.546 11.8104 18.5611 11.8194C18.6874 11.8944 18.7993 11.9617 18.903 12.0292C19.1189 12.17 19.2388 12.275 19.3026 12.3571C19.3467 12.4138 19.3428 12.4301 19.342 12.4334C19.342 12.4337 19.3419 12.4339 19.3419 12.434C19.3414 12.4612 19.3293 12.6078 19.1443 12.9248L18.8387 13.4483L19.0869 13.9668C20.1042 16.0917 21.196 18.3619 22.287 20.6303C25.0241 26.3213 27.7556 32.0007 29.2882 35.3424L29.5264 35.8618L30.0743 35.8693C35.2342 35.9404 39.4107 40.1991 43.0489 47.4237C43.9253 49.4271 44.7973 51.4089 45.6691 53.3899C49.6653 62.471 53.6543 71.5358 58.0168 82.5955C58.1014 83.0166 58.0992 83.3087 58.0442 83.5524C50.5603 89.8694 43.2394 93.4472 36.0152 95.269C35.7974 95.1328 35.5599 94.8928 35.2663 94.4654C34.3019 92.0945 33.3657 89.8047 32.4356 87.5297C29.0124 79.1567 25.6706 70.983 21.3021 59.6948L21.2949 59.6763L21.2871 59.6581C19.9028 56.4619 18.9227 52.9163 18.8071 49.526C18.6917 46.1454 19.4348 42.986 21.423 40.4321L21.7942 39.9552L21.6178 39.3961C18.8933 30.761 16.8051 24.4638 14.2505 16.9311L14.0533 16.3494L13.4738 16.3096C13.1153 16.2849 13.0719 16.1927 13.0474 16.1405C13.0465 16.1386 13.0456 16.1366 13.0447 16.1348C12.9627 15.9641 12.8792 15.5259 12.9893 14.4972L13.0192 14.218L12.9169 13.9696L11.546 10.638Z" stroke="black" stroke-width="2"/>
<path d="M11.947 15.1193C11.785 15.616 10.7252 16.1522 12.6244 16.5583L20.0111 13.8092C21.1363 12.3904 19.9485 12.39 19.3604 12.1478C21.3257 12.5345 11.5993 16.7509 11.947 15.1193Z" fill="black"/>
<path d="M13.1139 14.6749C10.0811 15.2466 17.9717 12.1752 18.1051 10.8031C20.5343 10.4516 18.2844 12.2347 13.1139 14.6749Z" fill="black"/>
<path d="M12.5353 13.0013C9.50246 13.5729 17.3931 10.5015 17.5265 9.12953C19.9557 8.77803 17.7058 10.5611 12.5353 13.0013Z" fill="black"/>
<defs>
<filter id="filter0_b_5_2485" x="-4.19162" y="28.3436" width="84.1916" height="78.3328" filterUnits="userSpaceOnUse" color-interpolation-filters="sRGB">
<feFlood flood-opacity="0" result="BackgroundImageFix"/>
<feGaussianBlur in="BackgroundImage" stdDeviation="5"/>
<feComposite in2="SourceAlpha" operator="in" result="effect1_backgroundBlur_5_2485"/>
<feBlend mode="normal" in="SourceGraphic" in2="effect1_backgroundBlur_5_2485" result="shape"/>
</filter>
</defs>
</svg>
