<svg width="70" height="102" viewBox="0 0 70 102" fill="none" xmlns="http://www.w3.org/2000/svg">
<g filter="url(#filter0_b_5_2517)">
<path d="M0.0033211 34.4219C0.00331577 28.0823 70 27.8765 70 37.3859C70 46.8953 69.2671 79.7292 59.0081 92.9453C48.7491 106.161 29.6708 99.7618 14.5343 92.9453C-0.602136 86.1289 0.00332642 40.7614 0.0033211 34.4219Z" fill="#F7ED0C" fill-opacity="0.92"/>
</g>
<mask id="path-2-inside-1_5_2517" fill="white">
<path d="M43.209 4.70236C43.3559 4.6065 43.5271 4.5793 43.6897 4.62601L51.3196 6.82712C51.4821 6.87421 51.6245 6.99186 51.7194 7.15746L52.1383 7.88774C52.2679 8.11396 52.2677 8.13264 52.1816 8.38693L51.1145 12.4795C50.3959 15.7166 50.8517 19.2034 52.3977 22.2954L54.1823 25.8645C56.0317 29.5635 56.737 33.5844 55.6149 37.365C55.1765 38.842 54.725 40.2682 54.4112 41.2412C54.1396 42.0834 53.8379 43.3339 53.6971 44.2193C53.2676 46.9193 52.1608 48.999 51.629 51.6717L49.1026 64.3669C48.2164 68.8198 47.8733 73.4052 47.531 77.9797L47.5062 78.31C47.3965 79.7756 47.2355 81.2516 47 82.5C46.2115 86.6794 43.7693 92.6408 43.496 93.3008C43.4786 93.3427 43.4754 93.3518 43.4577 93.3935C43.1721 94.0649 42.7346 94.7145 42.3975 95.3567C41.9835 96.1454 41.5676 96.9342 41.1485 97.7223C41.0095 97.9833 40.7594 98.1268 40.5032 98.0926L37.4596 97.69L37.4526 97.6891C36.8467 97.6005 36.3608 97.1119 36.0394 96.5528C35.579 95.7516 34.9233 95.3344 34.3466 95.5407C33.3145 95.91 32.5969 96.8174 31.5 96.5L29.4325 96.121C28.4372 95.8288 27.466 95.4886 26.5153 95.1239C26.2757 95.032 26.098 94.7881 26.0537 94.4904C25.9555 93.8273 25.9313 92.0244 25 92C24.5517 91.9883 24.0716 92.3354 23.6942 92.6986C23.249 93.1269 22.584 93.292 22 93L18.5904 91.6372C18.2981 91.5023 18.1205 91.1443 18.1608 90.771C18.2924 89.5465 18.4256 88.3229 18.5592 87.0994C18.5658 87.039 18.5653 86.9776 18.5665 86.9164L18.5666 86.9123C18.569 86.8361 18.8198 78.7678 19.6638 74.6295C19.9864 73.0476 20.6943 70.8816 21.4153 68.8805C22.7195 65.261 23.8842 61.579 24.6481 57.7594L26.0318 50.8413C27.3321 44.3398 26.2769 37.5234 27.5 31C28.6267 24.9908 34.5725 19.1621 37.4621 16.6332C38.4784 15.7437 39.3246 14.6541 39.8669 13.3802L40.0729 12.8964C40.1624 12.686 40.2304 12.465 40.2758 12.2369C40.3456 11.8867 40.3162 11.496 40.4729 11.1836C40.511 11.1077 40.5596 11.0388 40.6177 10.9803C41.071 10.523 41.3808 9.93182 41.5116 9.27487L42.2073 5.78021C42.2243 5.5037 42.3571 5.25666 42.5598 5.12447L43.209 4.70236Z"/>
</mask>
<path d="M43.6897 4.62601L44.0802 2.66447L44.078 2.66383L43.6897 4.62601ZM43.209 4.70236L44.3359 6.45353L44.3386 6.45182L43.209 4.70236ZM42.5598 5.12447L41.4329 3.3733L41.4306 3.37479L42.5598 5.12447ZM42.2073 5.78021L44.1288 6.33455L44.1556 6.20008L44.1642 6.06167L42.2073 5.78021ZM40.6177 10.9803L42.0362 12.494L42.0365 12.4937L40.6177 10.9803ZM40.4729 11.1836L42.2265 12.2297L42.2265 12.2297L40.4729 11.1836ZM40.0729 12.8964L41.8761 13.8352L41.8761 13.8352L40.0729 12.8964ZM39.8669 13.3802L38.0636 12.4414L38.0636 12.4414L39.8669 13.3802ZM26.0318 50.8413L27.953 51.3974L26.0318 50.8413ZM24.6481 57.7594L26.5694 58.3155L24.6481 57.7594ZM21.4153 68.8805L19.5723 68.0429L19.5723 68.0429L21.4153 68.8805ZM19.6638 74.6295L17.744 74.0659L17.744 74.066L19.6638 74.6295ZM18.5666 86.9123L16.6068 86.6948L16.6065 86.7034L16.6063 86.7119L18.5666 86.9123ZM18.5592 87.0994L16.6106 86.721L16.6106 86.7211L18.5592 87.0994ZM18.1608 90.771L20.1097 91.1467L20.1097 91.1459L18.1608 90.771ZM18.5904 91.6372L17.9099 93.4905L17.959 93.5132L18.009 93.5332L18.5904 91.6372ZM23.6942 92.6986L25.0831 94.2415L25.0831 94.2415L23.6942 92.6986ZM25 92L24.9025 89.9623L24.9025 89.9623L25 92ZM26.0537 94.4904L24.1161 94.6516L24.1163 94.653L26.0537 94.4904ZM26.5153 95.1239L27.0702 93.2175L27.0698 93.2173L26.5153 95.1239ZM29.4325 96.121L29.033 98.0799L29.1327 98.1092L29.234 98.1277L29.4325 96.121ZM31.5 96.5L31.892 94.5389L31.796 94.5111L31.6985 94.4932L31.5 96.5ZM37.4526 97.6891L37.3237 99.7073L37.3385 99.7095L37.3533 99.7114L37.4526 97.6891ZM37.4596 97.69L37.5625 95.6682L37.5589 95.6677L37.4596 97.69ZM40.5032 98.0926L40.6083 96.071L40.606 96.0708L40.5032 98.0926ZM41.1485 97.7223L42.881 98.809L42.8815 98.8082L41.1485 97.7223ZM42.3975 95.3567L40.6598 94.2797L42.3975 95.3567ZM43.496 93.3008L45.3065 94.2223L45.3065 94.2223L43.496 93.3008ZM47 82.5L48.9254 83.0345L47 82.5ZM47.5062 78.31L49.4613 78.6186L49.4613 78.6185L47.5062 78.31ZM49.1026 64.3669L51.0242 64.9211L49.1026 64.3669ZM51.629 51.6717L49.7074 51.1175L51.629 51.6717ZM54.4112 41.2412L56.2755 42.0164L54.4112 41.2412ZM55.6149 37.365L53.7371 36.6335L55.6149 37.365ZM51.1145 12.4795L49.219 11.8115L49.2098 11.8466L49.2019 11.8822L51.1145 12.4795ZM52.1816 8.38693L50.3263 7.58454L50.3039 7.65079L50.2861 7.71887L52.1816 8.38693ZM52.1383 7.88774L53.8038 6.94457L53.803 6.94307L52.1383 7.88774ZM51.7194 7.15746L50.0538 8.1006L50.0547 8.10213L51.7194 7.15746ZM51.3196 6.82712L51.7123 4.86622L51.7101 4.86558L51.3196 6.82712ZM37.4621 16.6332L36.1349 15.0335L37.4621 16.6332ZM27.5 31L25.5742 30.4677L27.5 31ZM52.3977 22.2954L50.6718 23.1259L52.3977 22.2954ZM54.1823 25.8645L55.9081 25.034L54.1823 25.8645ZM36.0394 96.5528L37.7033 95.6067L37.7033 95.6067L36.0394 96.5528ZM34.3466 95.5407L33.5868 93.6077L34.3466 95.5407ZM22 93L22.7396 91.175L22.6617 91.1361L22.5814 91.104L22 93ZM53.6971 44.2193L51.7617 43.7418L53.6971 44.2193ZM18.5665 86.9164L16.6062 86.716L16.6061 86.7222L18.5665 86.9164ZM47.531 77.9797L49.486 78.2883L49.486 78.2882L47.531 77.9797ZM43.4577 93.3935L41.6543 92.4551L41.6543 92.4551L43.4577 93.3935ZM44.078 2.66383C43.3401 2.45188 42.6262 2.59613 42.0795 2.9529L44.3386 6.45182C44.0857 6.61686 43.7142 6.70673 43.3015 6.58819L44.078 2.66383ZM42.0821 2.95119L41.4329 3.3733L43.6867 6.87563L44.3359 6.45353L42.0821 2.95119ZM41.4306 3.37479C40.6977 3.85285 40.3016 4.6692 40.2504 5.49876L44.1642 6.06167C44.1471 6.33819 44.0165 6.66046 43.6889 6.87414L41.4306 3.37479ZM40.2857 5.22588L39.59 8.72053L43.4332 9.8292L44.1288 6.33455L40.2857 5.22588ZM39.1991 9.46652C38.9993 9.66798 38.8401 9.89672 38.7193 10.1375L42.2265 12.2297C42.1818 12.3187 42.1199 12.4097 42.0362 12.494L39.1991 9.46652ZM38.2696 11.9576L38.0636 12.4414L41.6701 14.319L41.8761 13.8352L38.2696 11.9576ZM24.1105 50.2852L22.7269 57.2033L26.5694 58.3155L27.953 51.3974L24.1105 50.2852ZM19.5723 68.0429C18.8491 70.0502 18.0977 72.3316 17.744 74.0659L21.5835 75.1931C21.875 73.7636 22.5395 71.7131 23.2583 69.7181L19.5723 68.0429ZM17.744 74.066C16.8579 78.4111 16.6073 86.6776 16.6068 86.6948L20.5265 87.1297C20.5306 86.9946 20.7818 79.1245 21.5835 75.193L17.744 74.066ZM16.6106 86.7211C16.477 87.9448 16.3436 89.1698 16.2118 90.396L20.1097 91.1459C20.2412 89.9232 20.3743 88.701 20.5078 87.4778L16.6106 86.7211ZM16.2118 90.3953C16.0959 91.4707 16.5882 92.8807 17.9099 93.4905L19.2709 89.7839C20.0079 90.1239 20.1451 90.8179 20.1097 91.1467L16.2118 90.3953ZM25.0831 94.2415C25.1446 94.1823 25.2029 94.1309 25.2564 94.0884C25.3107 94.0453 25.3515 94.0182 25.3774 94.003C25.4047 93.987 25.4 93.9935 25.3639 94.0051C25.3278 94.0166 25.2356 94.0413 25.0975 94.0377L24.9025 89.9623C24.1984 89.9438 23.6288 90.2005 23.2636 90.4143C22.8782 90.64 22.5517 90.9184 22.3053 91.1556L25.0831 94.2415ZM25.0975 94.0377C24.8956 94.0324 24.6644 93.9736 24.4425 93.843C24.2305 93.7183 24.0949 93.5686 24.0205 93.4677C23.8987 93.3024 23.9039 93.2199 23.944 93.3796C23.9764 93.5084 24.0049 93.6855 24.0322 93.9196C24.0456 94.0352 24.0563 94.1409 24.0693 94.2647C24.0808 94.3735 24.0962 94.5173 24.1161 94.6516L27.9913 94.3292C27.9716 94.1963 27.9696 94.1127 27.925 93.7303C27.891 93.4391 27.8369 93.0396 27.7345 92.6317C27.6398 92.2548 27.4583 91.6756 27.0669 91.1447C26.6102 90.5252 25.866 89.9876 24.9025 89.9623L25.0975 94.0377ZM24.1163 94.653C24.2557 95.59 24.8672 96.611 25.9608 97.0304L27.0698 93.2173C27.6842 93.4529 27.9403 93.9863 27.9911 94.3279L24.1163 94.653ZM25.9605 97.0302C26.9483 97.4093 27.9728 97.7687 29.033 98.0799L29.832 94.1621C28.9015 93.8889 27.9836 93.5679 27.0702 93.2175L25.9605 97.0302ZM29.234 98.1277L31.3015 98.5068L31.6985 94.4932L29.631 94.1142L29.234 98.1277ZM37.3533 99.7114L37.3604 99.7123L37.5589 95.6677L37.5519 95.6668L37.3533 99.7114ZM37.3568 99.7119L40.4004 100.114L40.606 96.0708L37.5625 95.6682L37.3568 99.7119ZM40.3982 100.114C41.5555 100.269 42.4541 99.6108 42.881 98.809L39.4159 96.6356C39.5649 96.3558 39.9633 95.985 40.6083 96.071L40.3982 100.114ZM42.8815 98.8082C43.3026 98.0163 43.7202 97.2243 44.1353 96.4336L40.6598 94.2797C40.2468 95.0665 39.8326 95.8521 39.4155 96.6364L42.8815 98.8082ZM45.3065 94.2223C45.5662 93.5953 48.0926 87.449 48.9254 83.0345L45.0746 81.9654C44.3304 85.9098 41.9725 91.6863 41.6855 92.3794L45.3065 94.2223ZM48.9254 83.0345C49.1808 81.6808 49.3488 80.1201 49.4613 78.6186L45.5512 78.0014C45.4441 79.431 45.2903 80.8223 45.0746 81.9654L48.9254 83.0345ZM51.0242 64.9211L53.5506 52.226L49.7074 51.1175L47.181 63.8127L51.0242 64.9211ZM56.2755 42.0164C56.5918 41.0354 57.0484 39.5934 57.4927 38.0965L53.7371 36.6335C53.3047 38.0905 52.8581 39.501 52.547 40.4659L56.2755 42.0164ZM53.0099 13.1476L54.0771 9.05499L50.2861 7.71887L49.219 11.8115L53.0099 13.1476ZM54.0369 9.18932C54.0526 9.14277 54.0977 9.01277 54.1315 8.87529C54.1703 8.7178 54.2229 8.44583 54.1944 8.10315C54.1649 7.74869 54.0614 7.46557 53.978 7.27975C53.9086 7.12534 53.8288 6.98813 53.8038 6.94457L50.4728 8.8309C50.5127 8.90046 50.4814 8.85042 50.4458 8.77108C50.396 8.66034 50.3114 8.44019 50.2873 8.15047C50.2642 7.87252 50.3087 7.66704 50.3273 7.59164C50.3409 7.53626 50.3536 7.50394 50.3263 7.58454L54.0369 9.18932ZM53.803 6.94307L53.384 6.21279L50.0547 8.10213L50.4737 8.83241L53.803 6.94307ZM53.3849 6.21432C53.0319 5.59801 52.4498 5.0799 51.7123 4.86622L50.9269 8.78802C50.5145 8.66852 50.2171 8.38571 50.0538 8.1006L53.3849 6.21432ZM51.7101 4.86558L44.0802 2.66447L43.2993 6.58755L50.9291 8.78866L51.7101 4.86558ZM36.1349 15.0335C34.6448 16.3377 32.3479 18.5078 30.2659 21.1511C28.2102 23.7608 26.2233 27.0058 25.5742 30.4677L29.4258 31.5323C29.9035 28.985 31.4528 26.3111 33.3741 23.8719C35.269 21.4663 37.3899 19.4575 38.7892 18.2328L36.1349 15.0335ZM50.6718 23.1259L52.4564 26.695L55.9081 25.034L54.1236 21.4649L50.6718 23.1259ZM37.7033 95.6067C37.0621 94.4909 35.5217 92.9154 33.5868 93.6077L35.1063 97.4737C34.9627 97.5251 34.8039 97.539 34.6516 97.516C34.5051 97.4939 34.4001 97.4434 34.343 97.4087C34.2425 97.3475 34.2808 97.3338 34.3756 97.4988L37.7033 95.6067ZM22.5814 91.104L19.1719 89.7412L18.009 93.5332L21.4186 94.896L22.5814 91.104ZM49.2019 11.8822C48.3788 15.5901 48.901 19.5842 50.6718 23.1259L54.1236 21.4649C52.8025 18.8227 52.4129 15.8431 53.027 13.0769L49.2019 11.8822ZM55.6324 44.6967C55.7565 43.9167 56.0339 42.7656 56.2755 42.0164L52.547 40.4659C52.2454 41.4012 51.9193 42.7512 51.7617 43.7418L55.6324 44.6967ZM37.5816 95.6709C37.6491 95.6808 37.7073 95.7014 37.751 95.7229C37.7929 95.7436 37.814 95.7613 37.8161 95.7631C37.8178 95.7646 37.8053 95.754 37.7825 95.7254C37.7599 95.697 37.7324 95.6574 37.7033 95.6067L34.3756 97.4988C34.8527 98.3291 35.8142 99.4867 37.3237 99.7073L37.5816 95.6709ZM16.6061 86.7222C16.6058 86.7345 16.6056 86.7458 16.6055 86.7549C16.6054 86.7595 16.6054 86.764 16.6053 86.7678C16.6053 86.7718 16.6052 86.7751 16.6052 86.7783C16.6051 86.7847 16.605 86.789 16.6049 86.7922C16.6049 86.7938 16.6049 86.7949 16.6049 86.7957C16.6049 86.7964 16.6048 86.7968 16.6048 86.7968C16.6048 86.7967 16.6049 86.7963 16.6049 86.7955C16.6049 86.7947 16.605 86.7935 16.605 86.7919C16.6052 86.7887 16.6054 86.7838 16.6057 86.7776C16.6065 86.7652 16.6079 86.7457 16.6106 86.721L20.5078 87.4778C20.5196 87.3703 20.5233 87.2782 20.5249 87.2196C20.5257 87.19 20.5262 87.1634 20.5264 87.1463C20.5267 87.1252 20.5268 87.1191 20.527 87.1106L16.6061 86.7222ZM31.108 98.4611C32.3539 98.8216 33.3275 98.429 33.9318 98.1125C34.1913 97.9766 34.5176 97.7775 34.6658 97.6922C34.8655 97.5773 34.997 97.5129 35.1063 97.4737L33.5868 93.6077C33.1802 93.7532 32.8349 93.9406 32.5755 94.0898C32.2646 94.2686 32.1494 94.3458 31.9634 94.4432C31.6766 94.5934 31.743 94.4958 31.892 94.5389L31.108 98.4611ZM57.4927 38.0965C58.7974 33.7008 57.9455 29.1087 55.9081 25.034L52.4564 26.695C54.118 30.0183 54.6766 33.4681 53.7371 36.6335L57.4927 38.0965ZM16.6063 86.7119L16.6062 86.716L20.5268 87.1168L20.5269 87.1127L16.6063 86.7119ZM53.5506 52.226C53.7873 51.0362 54.1521 49.9731 54.5598 48.7488C54.9569 47.5565 55.3893 46.2252 55.6324 44.6967L51.7617 43.7418C51.5754 44.9134 51.2396 45.972 50.843 47.1628C50.457 48.3215 50.0025 49.6346 49.7074 51.1175L53.5506 52.226ZM22.7269 57.2033C21.9903 60.8864 20.8611 64.4662 19.5723 68.0429L23.2583 69.7181C24.5779 66.0558 25.7782 62.2716 26.5694 58.3155L22.7269 57.2033ZM49.4613 78.6185L49.486 78.2883L45.5759 77.6712L45.5512 78.0014L49.4613 78.6185ZM49.486 78.2882C49.8299 73.6925 50.1662 69.2326 51.0242 64.9211L47.181 63.8127C46.2667 68.4071 45.9167 73.1178 45.5759 77.6712L49.486 78.2882ZM25.5742 30.4677C24.9249 33.9303 24.8853 37.4463 24.8342 40.7436C24.7822 44.1005 24.7186 47.2446 24.1105 50.2852L27.953 51.3974C28.6452 47.9365 28.7042 44.4216 28.7554 41.1141C28.8076 37.747 28.8519 34.5931 29.4258 31.5323L25.5742 30.4677ZM45.2611 94.3318C45.2741 94.3014 45.2829 94.2799 45.2912 94.2596C45.2987 94.2414 45.3003 94.2372 45.3065 94.2223L41.6855 92.3793C41.6743 92.4064 41.6657 92.4276 41.6627 92.4349C41.6606 92.4399 41.659 92.4439 41.6543 92.4551L45.2611 94.3318ZM38.0636 12.4414C37.6479 13.418 36.9818 14.2923 36.1349 15.0335L38.7892 18.2328C39.9749 17.1951 41.0013 15.8901 41.6701 14.319L38.0636 12.4414ZM22.3053 91.1556C22.3131 91.1481 22.3362 91.1275 22.3954 91.1158C22.4627 91.1025 22.5915 91.101 22.7396 91.175L21.2604 94.825C22.7417 95.5656 24.2183 95.0737 25.0831 94.2415L22.3053 91.1556ZM44.1353 96.4336C44.2824 96.1534 44.439 95.8942 44.6513 95.5236C44.8452 95.1854 45.0723 94.7757 45.2611 94.3318L41.6543 92.4551C41.5575 92.6827 41.423 92.9334 41.2425 93.2484C41.0804 93.5311 40.8498 93.9178 40.6598 94.2797L44.1353 96.4336ZM38.3543 11.6826C38.3353 11.7777 38.307 11.8699 38.2696 11.9576L41.8761 13.8352C42.0179 13.5021 42.1255 13.1524 42.1974 12.7913L38.3543 11.6826ZM38.7194 10.1375C38.4849 10.6049 38.4226 11.0642 38.3947 11.3037C38.3838 11.3974 38.3671 11.574 38.3644 11.5992C38.3571 11.6688 38.3536 11.6861 38.3543 11.6826L42.1974 12.7913C42.233 12.6127 42.2519 12.4498 42.2636 12.3379C42.2694 12.283 42.2749 12.2249 42.2786 12.1871C42.2828 12.1439 42.2858 12.114 42.2888 12.0885C42.3029 11.967 42.3042 12.0748 42.2265 12.2297L38.7194 10.1375ZM39.59 8.72053C39.5328 9.00801 39.3972 9.2667 39.1988 9.46682L42.0365 12.4937C42.7447 11.7793 43.2289 10.8556 43.4332 9.8292L39.59 8.72053Z" fill="black" mask="url(#path-2-inside-1_5_2517)"/>
<path d="M53.0156 5.86621L42.7908 3.79308C42.1748 3.66818 41.5702 3.98128 41.4404 4.4924L40.866 6.75468C40.7362 7.2658 41.1304 7.7814 41.7464 7.90631L51.9712 9.97943C52.5872 10.1043 53.1918 9.79124 53.3216 9.28012L53.896 7.01784C54.0258 6.50672 53.6316 5.99111 53.0156 5.86621Z" fill="#2D2D2D"/>
<path d="M42.5596 4.79896C42.5888 4.62524 42.5061 4.45292 42.3748 4.41409C42.2435 4.37526 42.1133 4.48461 42.0841 4.65834L41.6181 7.42642C41.5889 7.60015 41.6716 7.77246 41.803 7.81129C41.9343 7.85013 42.0644 7.74077 42.0937 7.56705L42.5596 4.79896Z" fill="white"/>
<path d="M43.6715 4.97827C43.7007 4.80454 43.618 4.63223 43.4867 4.5934C43.3553 4.55457 43.2252 4.66392 43.1959 4.83764L42.73 7.60573C42.7008 7.77945 42.7835 7.95177 42.9148 7.9906C43.0462 8.02943 43.1763 7.92008 43.2056 7.74636L43.6715 4.97827Z" fill="white"/>
<path d="M44.7648 5.10612C44.7941 4.9324 44.7113 4.76009 44.58 4.72125C44.4487 4.68242 44.3185 4.79177 44.2893 4.9655L43.8233 7.73358C43.7941 7.90731 43.8769 8.07962 44.0082 8.11845C44.1395 8.15729 44.2696 8.04793 44.2989 7.87421L44.7648 5.10612Z" fill="white"/>
<path d="M46.0825 5.21091C46.1118 5.03718 46.029 4.86487 45.8977 4.82604C45.7664 4.7872 45.6363 4.89656 45.607 5.07029L45.1411 7.83843C45.1119 8.01216 45.1946 8.18448 45.3259 8.22331C45.4572 8.26214 45.5874 8.15279 45.6166 7.97906L46.0825 5.21091Z" fill="white"/>
<path d="M47.4863 5.42436C47.5155 5.25063 47.4328 5.07831 47.3015 5.03948C47.1701 5.00064 47.04 5.11 47.0107 5.28373L46.5448 8.05187C46.5156 8.22559 46.5983 8.39791 46.7296 8.43675C46.8609 8.47558 46.9911 8.36623 47.0203 8.1925L47.4863 5.42436Z" fill="white"/>
<path d="M48.9201 5.59206C48.9493 5.41833 48.8666 5.24602 48.7353 5.20719C48.604 5.16835 48.4738 5.27771 48.4446 5.45143L47.9786 8.21958C47.9494 8.39331 48.0321 8.56562 48.1635 8.60446C48.2948 8.64329 48.4249 8.53393 48.4542 8.36021L48.9201 5.59206Z" fill="white"/>
<path d="M50.1107 5.73128C50.1399 5.55756 50.0572 5.38524 49.9258 5.34641C49.7945 5.30757 49.6643 5.41693 49.6351 5.59066L49.1691 8.3588C49.1399 8.53253 49.2227 8.70485 49.354 8.74368C49.4853 8.78251 49.6155 8.67316 49.6447 8.49943L50.1107 5.73128Z" fill="white"/>
<path d="M51.3498 5.87625C51.3791 5.70252 51.2963 5.53021 51.165 5.49138C51.0337 5.45255 50.9035 5.5619 50.8742 5.73562L50.4083 8.50371C50.3791 8.67744 50.4618 8.84975 50.5932 8.88858C50.7245 8.92741 50.8547 8.81806 50.8839 8.64433L51.3498 5.87625Z" fill="white"/>
<path d="M52.4215 5.97693C52.4508 5.8032 52.368 5.63089 52.2367 5.59206C52.1054 5.55322 51.9753 5.66258 51.946 5.83631L51.4801 8.60446C51.4509 8.77818 51.5336 8.9505 51.6649 8.98933C51.7962 9.02816 51.9264 8.91881 51.9556 8.74508L52.4215 5.97693Z" fill="white"/>
<path d="M53.4175 6.09344C53.4468 5.91971 53.364 5.7474 53.2327 5.70857C53.1014 5.66974 52.9712 5.77909 52.942 5.95282L52.4761 8.72091C52.4469 8.89463 52.5296 9.06694 52.6609 9.10577C52.7922 9.14461 52.9224 9.03525 52.9516 8.86153L53.4175 6.09344Z" fill="white"/>
<defs>
<filter id="filter0_b_5_2517" x="-10" y="19.9152" width="90" height="90.7252" filterUnits="userSpaceOnUse" color-interpolation-filters="sRGB">
<feFlood flood-opacity="0" result="BackgroundImageFix"/>
<feGaussianBlur in="BackgroundImage" stdDeviation="5"/>
<feComposite in2="SourceAlpha" operator="in" result="effect1_backgroundBlur_5_2517"/>
<feBlend mode="normal" in="SourceGraphic" in2="effect1_backgroundBlur_5_2517" result="shape"/>
</filter>
</defs>
</svg>
