<svg width="70" height="100" viewBox="0 0 70 100" fill="none" xmlns="http://www.w3.org/2000/svg">
<g filter="url(#filter0_b_5_2517)">
<path d="M0.0033211 33.4219C0.00331577 27.0823 70 26.8765 70 36.3859C70 45.8953 69.2671 78.7292 59.0081 91.9453C48.7491 105.161 29.6708 98.7618 14.5343 91.9453C-0.602136 85.1289 0.00332642 39.7614 0.0033211 33.4219Z" fill="#F7ED0C" fill-opacity="0.92"/>
</g>
<path d="M54.3137 39.1283L54.3161 39.1039L54.3367 38.8891L54.4105 38.1223L54.6344 35.7947C54.6565 35.5654 54.6787 35.3342 54.7007 35.106C54.8077 33.9934 54.9079 32.9509 54.949 32.5346C54.879 32.0818 54.8139 31.6569 54.7526 31.2564C54.3469 28.6055 54.1046 27.0226 53.6593 25.4591C53.1477 23.6625 52.36 21.873 50.6718 18.5319L50.6191 18.4275L50.5892 18.3153L49.9197 15.8071L49.845 15.5274L49.9185 15.2588L50.2515 14.0417L50.2837 13.9237L50.3119 13.8744C50.3182 13.8391 50.3242 13.7866 50.3266 13.7232C50.3292 13.656 50.3271 13.5941 50.3227 13.5482C50.3218 13.5386 50.3209 13.5307 50.3201 13.5248L50.2833 13.4212L50.2724 13.2761L50.137 11.4832L50.1239 11.3096L50.1667 11.1455L51.2013 7.17762L50.9624 6.76118L43.6563 4.65348L43.1832 4.96105L43.1814 4.99016L43.168 5.0574L42.2722 9.55755L42.216 9.84029L42.0209 10.0371L41.359 10.7048L41.3725 10.8315L41.3418 10.9855L41.1683 11.8572L41.1484 11.9572L41.1092 12.0494L39.9428 14.7892L39.8325 15.0484L39.602 15.197C34.3993 18.553 30.597 23.9523 28.9933 31.527L28.9923 31.5324C28.4412 34.3006 28.4198 36.8656 28.8084 39.1375L28.8416 39.3315L28.8043 39.5193L24.0518 63.3934L24.0344 63.4808L24.0021 63.5625C23.9323 63.7393 21.378 70.2124 20.6236 73.9113C20.2148 75.9162 19.9436 78.925 19.7754 81.4755C19.6918 82.7418 19.6346 83.8797 19.5982 84.701C19.58 85.1115 19.5671 85.4425 19.5587 85.6705C19.5545 85.7844 19.5514 85.8726 19.5494 85.9321L19.5472 85.9994L19.5469 86.01L19.5538 86.1023L19.5434 86.1978C19.4118 87.4027 19.2807 88.6071 19.151 89.8122L22.3899 91.3063L22.3957 91.3089C22.9498 91.5558 23.5056 91.8025 24.0665 92.0463C24.2653 91.7966 24.4607 91.5463 24.6592 91.2919C24.7785 91.1391 24.8989 90.9848 25.0219 90.8284L26.4623 88.9959L26.7715 91.4506C26.7972 91.6543 26.8213 91.8531 26.8451 92.049C26.8945 92.4557 26.9424 92.85 26.9992 93.2494C27.8637 93.5766 28.7394 93.8794 29.6308 94.1411C30.8268 94.4871 32.0246 94.7573 33.2203 94.9854C33.4721 94.5708 33.7141 94.1538 33.9614 93.7277C34.0454 93.583 34.13 93.4372 34.2158 93.2901L35.2176 91.573L35.9725 93.5523C36.0353 93.717 36.0977 93.8811 36.16 94.0447C36.3547 94.5564 36.5474 95.0631 36.7441 95.5676C36.8846 95.5882 37.0246 95.6085 37.1652 95.6289C37.2793 95.6454 37.3939 95.662 37.5095 95.6789C37.51 95.679 37.5105 95.679 37.511 95.6791L54.3137 39.1283ZM54.3137 39.1283C53.7608 41.877 52.8069 44.2057 51.6133 46.0065L51.5106 46.1614L51.4732 46.3492L46.7767 69.9491L46.7593 70.0366L46.7574 70.1271C46.7531 70.3227 46.5928 77.4864 45.8726 81.1951C45.4813 83.2102 44.6589 85.8808 43.9206 88.0788C43.5538 89.171 43.2119 90.1344 42.9618 90.8246C42.8368 91.1696 42.7348 91.446 42.6642 91.6358C42.6448 91.688 42.6278 91.7336 42.6133 91.7723C42.6015 91.8039 42.5913 91.8309 42.583 91.853L42.5621 91.9086L42.5568 91.9224L42.5568 91.9225M54.3137 39.1283L42.5568 91.9225M22.0679 92.2412C22.7038 92.5245 23.3458 92.8093 23.9964 93.0903L22.0679 92.2412ZM22.0679 92.2412L22.0605 92.2379M22.0679 92.2412L22.0605 92.2379M42.5568 91.9225C42.5568 91.9225 42.5568 91.9226 42.5567 91.9228C42.5551 91.9266 42.5347 91.9741 42.4905 92.0667C42.4491 92.1534 42.3974 92.2578 42.3442 92.3593C42.2953 92.4529 42.2501 92.5347 42.2139 92.5951L42.1445 92.6428L42.0398 92.8429C41.479 93.9144 40.9165 94.9853 40.3484 96.0544L37.5171 95.68L42.5568 91.9225ZM18.5904 90.6372L22.0605 92.2379M18.5904 90.6372L18.859 89.9056L18.8591 89.9053L18.9307 89.7105L18.9306 89.7105L18.859 89.9053L18.859 89.9056L18.5904 90.6372ZM18.5904 90.6372L22.0605 92.2379M40.5544 96.0817C40.5548 96.0817 40.5553 96.0818 40.5557 96.0818L40.5546 96.0817L40.5544 96.0817ZM24.3133 92.1533C24.3126 92.153 24.3119 92.1527 24.3112 92.1524C24.312 92.1527 24.3127 92.153 24.3135 92.1533L24.3133 92.1533ZM41.3269 10.7372L41.3271 10.737L41.3269 10.7372ZM50.887 6.62981C50.8869 6.62961 50.8868 6.6294 50.8867 6.6292L50.887 6.62981Z" stroke="black" stroke-width="2"/>
<path d="M53.0155 4.86621L42.7908 2.79308C42.1747 2.66818 41.5701 2.98128 41.4403 3.4924L40.8659 5.75468C40.7362 6.2658 41.1303 6.7814 41.7464 6.90631L51.9711 8.97943C52.5872 9.10434 53.1918 8.79124 53.3215 8.28012L53.896 6.01784C54.0257 5.50672 53.6316 4.99111 53.0155 4.86621Z" fill="#2D2D2D"/>
<path d="M42.5596 3.79896C42.5888 3.62524 42.5061 3.45292 42.3747 3.41409C42.2434 3.37526 42.1133 3.48461 42.084 3.65834L41.6181 6.42642C41.5889 6.60015 41.6716 6.77246 41.8029 6.81129C41.9342 6.85013 42.0644 6.74077 42.0936 6.56705L42.5596 3.79896Z" fill="white"/>
<path d="M43.6714 3.97827C43.7007 3.80454 43.6179 3.63223 43.4866 3.5934C43.3553 3.55457 43.2251 3.66392 43.1959 3.83764L42.73 6.60573C42.7007 6.77945 42.7835 6.95177 42.9148 6.9906C43.0461 7.02943 43.1763 6.92008 43.2055 6.74636L43.6714 3.97827Z" fill="white"/>
<path d="M44.7648 4.10612C44.794 3.9324 44.7113 3.76009 44.58 3.72125C44.4486 3.68242 44.3185 3.79177 44.2892 3.9655L43.8233 6.73358C43.7941 6.90731 43.8768 7.07962 44.0081 7.11845C44.1395 7.15729 44.2696 7.04793 44.2989 6.87421L44.7648 4.10612Z" fill="white"/>
<path d="M46.0825 4.21091C46.1117 4.03718 46.029 3.86487 45.8977 3.82604C45.7664 3.7872 45.6362 3.89656 45.607 4.07029L45.1411 6.83843C45.1119 7.01216 45.1946 7.18448 45.3259 7.22331C45.4572 7.26214 45.5874 7.15279 45.6166 6.97906L46.0825 4.21091Z" fill="white"/>
<path d="M47.4862 4.42436C47.5155 4.25063 47.4327 4.07831 47.3014 4.03948C47.1701 4.00064 47.0399 4.11 47.0107 4.28373L46.5448 7.05187C46.5155 7.22559 46.5983 7.39791 46.7296 7.43675C46.8609 7.47558 46.9911 7.36623 47.0203 7.1925L47.4862 4.42436Z" fill="white"/>
<path d="M48.9201 4.59206C48.9493 4.41833 48.8666 4.24602 48.7352 4.20719C48.6039 4.16835 48.4738 4.27771 48.4445 4.45143L47.9786 7.21958C47.9494 7.39331 48.0321 7.56562 48.1634 7.60446C48.2947 7.64329 48.4249 7.53393 48.4541 7.36021L48.9201 4.59206Z" fill="white"/>
<path d="M50.1106 4.73128C50.1399 4.55756 50.0571 4.38524 49.9258 4.34641C49.7945 4.30757 49.6643 4.41693 49.635 4.59066L49.1691 7.3588C49.1399 7.53253 49.2226 7.70485 49.354 7.74368C49.4853 7.78251 49.6155 7.67316 49.6447 7.49943L50.1106 4.73128Z" fill="white"/>
<path d="M51.3498 4.87625C51.379 4.70252 51.2963 4.53021 51.165 4.49138C51.0336 4.45255 50.9034 4.5619 50.8742 4.73562L50.4083 7.50371C50.379 7.67744 50.4618 7.84975 50.5931 7.88858C50.7245 7.92741 50.8546 7.81806 50.8839 7.64433L51.3498 4.87625Z" fill="white"/>
<path d="M52.4215 4.97693C52.4507 4.8032 52.368 4.63089 52.2367 4.59206C52.1054 4.55322 51.9752 4.66258 51.946 4.83631L51.4801 7.60446C51.4508 7.77818 51.5336 7.9505 51.6649 7.98933C51.7962 8.02816 51.9263 7.91881 51.9556 7.74508L52.4215 4.97693Z" fill="white"/>
<path d="M53.4175 5.09344C53.4467 4.91971 53.364 4.7474 53.2327 4.70857C53.1014 4.66974 52.9712 4.77909 52.942 4.95282L52.4761 7.72091C52.4468 7.89463 52.5296 8.06694 52.6609 8.10577C52.7922 8.14461 52.9224 8.03525 52.9516 7.86153L53.4175 5.09344Z" fill="white"/>
<defs>
<filter id="filter0_b_5_2517" x="-10" y="18.9152" width="90" height="90.7252" filterUnits="userSpaceOnUse" color-interpolation-filters="sRGB">
<feFlood flood-opacity="0" result="BackgroundImageFix"/>
<feGaussianBlur in="BackgroundImage" stdDeviation="5"/>
<feComposite in2="SourceAlpha" operator="in" result="effect1_backgroundBlur_5_2517"/>
<feBlend mode="normal" in="SourceGraphic" in2="effect1_backgroundBlur_5_2517" result="shape"/>
</filter>
</defs>
</svg>
