<svg width="70" height="80" viewBox="0 0 70 80" fill="none" xmlns="http://www.w3.org/2000/svg">
<g filter="url(#filter0_b_44_26)">
<path d="M3.86159 36.767C1.41043 19.7646 56.5071 33.7071 56.5071 42.1181C56.5071 50.5291 56.5071 53.9176 49 68.7092C41.4929 83.5007 31.8201 80.4505 15.5 77.7749C-0.820107 75.0994 6.31275 53.7693 3.86159 36.767Z" fill="#910D0D" fill-opacity="0.72"/>
</g>
<path fill-rule="evenodd" clip-rule="evenodd" d="M38.5612 35.5915C37.9778 35.2248 35.2076 33.6272 34.5845 33.2718C29.7188 30.4965 23.9067 27.6893 19.3766 26.1607C18.7619 25.9533 17.5327 25.5526 16.9528 25.4998C16.3728 25.4471 15.8318 25.4075 15.5002 25.7603C15.1685 26.1132 15.1586 26.4243 15.2339 26.8126L13.9964 29.4045C14.157 30.3597 14.0147 31.0338 13.5609 31.4347C12.928 31.9939 12.0772 32.4 12.0041 33.1521C11.9442 33.7686 12.1147 34.531 11.6482 34.8155C10.8067 35.3287 10.2293 35.8394 10.2266 36.6281C10.2243 37.3166 10.3842 38.1133 9.9426 38.4716C9.15597 39.1099 8.26934 39.3804 8.29883 40.1988C8.32842 41.0201 8.49058 41.7486 8.13178 41.9797C7.45638 42.4147 6.45942 42.6878 6.42698 43.4076C6.12708 43.8711 5.3332 45.3322 5.22838 45.4344C5.01665 45.7154 5.24747 45.9745 5.44592 46.3216C5.33167 46.3744 4.91849 46.3708 4.78046 46.4664C4.58853 46.5993 4.63611 46.7992 4.66507 47.1562C4.71213 47.7366 5.01075 48.3472 5.39798 48.9262C5.98567 49.8048 6.96676 50.9738 8.35463 52.3649C11.1304 55.147 15.6049 58.8139 22.2046 62.6642C29.3864 66.8541 34.5476 68.555 37.9333 69.2393C39.8246 69.6215 41.587 69.7904 43.0355 69.5473C43.4077 69.3511 43.329 69.1179 43.3635 68.7798C43.7372 68.8276 43.9355 68.6008 44.0074 68.5397L45.0214 66.6145C45.4108 65.8751 45.8222 64.9933 45.8479 64.1359C45.8669 63.5061 46.4809 63.4467 46.8791 63.1172C47.8606 62.3049 47.8634 61.7313 47.7196 60.6541C47.6432 60.0827 47.9218 60.0775 48.8906 59.6659C49.6928 59.325 49.7917 58.3601 49.7358 57.3144C49.6956 56.563 50.5003 56.4877 51.0819 56.158C51.862 55.7159 51.7889 54.705 51.8114 53.897C51.8307 53.2008 52.9506 53.1645 53.2452 52.6861L54.7802 50.1938C55.014 50.1068 55.2687 50.0976 55.4249 50.0087C55.9099 49.7326 55.7155 49.2083 55.4931 48.6685C55.3682 48.3652 55.0714 47.9206 54.6036 47.3543C53.6681 46.2217 51.8316 44.6232 48.8134 42.4271C44.6955 39.4308 41.7692 37.6073 38.5612 35.5915ZM53.1625 47.208C53.679 47.7341 53.9648 48.204 53.989 48.3662C54.0326 48.6577 53.7576 48.6919 53.4352 48.6779C52.4384 47.3071 50.7771 45.8499 49.5326 44.8143C46.7274 42.4799 42.3778 39.3509 36.2197 35.7997C29.5805 31.971 24.8305 29.8399 21.7293 28.6648C19.6111 27.8622 18.3008 27.5215 17.647 27.3746C17.4579 27.1512 17.2554 26.9286 17.3541 26.8801C17.7261 26.6977 18.5081 26.9467 19.1413 27.1273C23.0276 28.2358 28.5351 30.7033 33.3911 33.3165C34.0183 33.654 35.692 34.5747 38.1245 36.0763C40.5595 37.5794 44.4562 40.0687 47.8683 42.6806C51.2805 45.2925 52.3275 46.3575 53.1625 47.208ZM38.4677 37.8268C42.3146 40.1764 45.6918 42.4232 48.0899 44.4008C49.7204 45.7455 51.1636 47.0994 52.4613 48.5123C51.9309 48.37 51.1928 48.1498 50.7549 47.9797C49.3203 47.4222 47.8241 46.7494 46.3059 46.0148C44.728 44.777 40.7348 41.7869 34.7682 38.3185C28.2937 34.5549 23.9443 32.424 22.6211 31.7919C21.5292 30.9847 20.5565 30.2228 19.7747 29.5458C19.2745 29.1127 18.8512 28.7088 18.4967 28.342C19.2856 28.5086 20.5382 28.828 22.3037 29.497C25.3175 30.639 29.4199 32.5896 35.9911 36.379C36.7514 36.8175 37.7959 37.4164 38.4677 37.8268ZM34.4872 38.8333C38.4776 41.1529 41.5597 43.2084 43.6238 44.663C40.6827 43.127 37.7211 41.4265 34.9687 39.8191C32.2084 38.2071 28.5183 35.9074 25.8098 34.0892C27.827 35.0892 31.19 36.9167 34.4872 38.8333ZM16.8125 28.4937C17.3044 29.032 18.1035 29.6881 18.823 30.3112C22.4943 33.4903 28.7778 37.4678 34.4366 40.7725C39.492 43.7249 45.3698 47.0439 50.806 49.1563C51.3289 49.3595 51.931 49.5339 52.4401 49.6765C52.0327 50.42 51.6813 51.2839 51.2189 51.9564C40.377 48.6491 23.673 39.0307 15.8172 30.8527C15.8464 30.6677 15.8698 30.4831 15.8654 30.3278L16.8125 28.4937ZM15.5946 31.6879C20.3579 36.147 25.9456 39.9971 31.9307 43.5708C41.6584 49.3794 48.3542 51.8456 50.7334 52.6278C50.5042 52.9683 50.3715 53.317 50.5503 53.8002C50.7797 54.42 50.0827 54.8606 49.7948 55.0904C49.7139 55.1549 49.6211 55.2114 49.5329 55.2714C48.9466 55.1312 47.14 54.6704 44.3678 53.6739C40.9882 52.459 36.105 50.3517 30.1245 46.7807C23.6487 42.9139 19.4212 39.6629 16.8186 37.3904C15.4638 36.2075 14.5764 35.3183 14.0205 34.7226C14.1015 34.4823 14.1375 34.2278 14.0984 33.962C14.026 33.4697 14.2496 32.6981 15.0097 32.481C15.2318 32.4175 15.4384 32.0884 15.5946 31.6879ZM48.7721 55.8075C48.4209 56.0891 48.1849 56.414 48.3394 56.9093C48.704 58.0789 48.2363 58.1808 47.753 58.4451C46.899 58.2518 44.7472 57.7282 42.2777 56.8371C39.1022 55.6912 34.4191 53.6528 28.4331 50.0785C21.9573 46.2117 17.7638 42.981 15.1964 40.7297C13.7681 39.4773 12.8942 38.5804 12.3645 37.998C12.4006 37.8008 12.4149 37.6048 12.4006 37.4211C12.3547 36.8308 12.524 36.2917 12.9851 35.9854C13.2262 35.8253 13.4367 35.6181 13.6223 35.3937C14.2328 36.0106 14.9877 36.7563 16.0163 37.7127C18.604 40.1188 23.0688 43.6981 29.6888 47.651C35.843 51.3258 41.0142 53.4732 44.4878 54.5394C46.4526 55.1424 47.8185 55.5382 48.7721 55.8075ZM46.8905 59.0134C46.5125 59.3196 46.2312 59.6924 46.291 60.1889C45.5969 60.0375 43.9667 59.6377 41.4757 58.7423C38.0961 57.5274 33.2129 55.4201 27.2324 51.849C20.7566 47.9823 16.5291 44.7313 13.9264 42.4588C12.6237 41.3212 11.7377 40.4406 11.1772 39.845C11.554 39.5386 11.8939 39.1606 12.0809 38.7973C12.6756 39.4019 13.4015 40.1231 14.3906 41.0482C17.0006 43.4891 21.3733 46.9297 27.9934 50.8827C34.142 54.5541 39.0331 56.5462 42.3944 57.7016C44.3361 58.369 45.8792 58.7733 46.8905 59.0134ZM46.3397 61.0032C46.2945 61.5425 46.0501 61.9239 45.6436 62.1521C45.1847 62.4096 44.4093 62.9316 44.2429 63.5381C43.4649 63.3601 41.8643 63.1316 39.5718 62.3076C36.1922 61.0927 31.2389 59.0021 25.2584 55.4311C18.7826 51.5643 14.7156 48.1374 12.1129 45.8649C10.884 44.7918 10.05 43.9678 9.48618 43.3755C10.258 42.8527 10.3041 41.9637 10.3113 41.1661C10.3107 40.8854 10.4101 40.5189 10.7116 40.408C11.2892 40.9855 12.0552 41.7872 13.1242 42.7811C15.7119 45.1872 20.1767 48.7665 26.7967 52.7194C32.9509 56.3942 38.1206 58.5408 41.5943 59.607C44.1025 60.3768 45.5345 60.7805 46.3397 61.0032ZM44.2041 64.3197C44.1916 65.0132 43.7834 65.2004 43.4535 65.6644L42.3237 67.2535C42.1218 67.3038 41.8901 67.2871 41.6338 67.2846C39.9843 67.2347 38.6541 67.0754 37.1972 66.7315C34.0562 65.9902 29.3002 64.3668 23.0267 60.5701C17.0902 56.9774 10.8923 51.9098 7.66239 47.4198C7.03146 46.4877 8.33842 45.4714 8.61385 44.8513C8.73289 44.5832 8.91457 44.2198 9.02307 43.9241C9.57732 44.5119 10.2829 45.2317 11.3106 46.1873C13.8984 48.5934 18.2793 52.2135 24.8994 56.1664C31.0536 59.8411 36.2709 62.0106 39.7446 63.0768C41.8732 63.7301 43.2743 64.0588 44.2041 64.3197ZM41.6062 67.86C41.578 68.0544 41.5357 68.1998 41.5118 68.2228C41.4112 68.2485 40.2273 68.5366 37.3301 67.9543C34.3062 67.3465 29.5091 65.8628 22.7019 61.7653C18.5194 59.2477 13.6715 55.6642 11.1212 53.108C9.84605 51.8299 8.68028 50.6349 8.134 49.9064C7.65957 49.2737 7.18657 48.6453 7.20244 48.4362C7.20798 48.3633 7.31801 48.3241 7.45194 48.277C9.03021 50.2019 14.1277 55.9431 22.7428 61.0533C29.1808 64.8721 34.1349 66.4852 37.4069 67.2624C39.4698 67.7525 39.9438 67.6217 41.6062 67.86Z" fill="black"/>
<path fill-rule="evenodd" clip-rule="evenodd" d="M15.1739 26.2222C15.7724 24.2222 17.5781 22.728 20.1319 21.5472L33.3717 16.7993C37.5065 15.8961 41.4417 14.8756 46.2616 14.3744C48.5043 14.432 50.6197 14.2276 53.5019 15.6019C55.2462 16.7634 55.5433 18.6174 53.7402 21.4763C51.5166 23.841 49.1014 25.7059 46.2289 26.3795L41.7693 29.0037L36.8587 29.3284C35.7126 29.9478 34.7054 30.7563 32.9529 30.5511L28.8765 30.6871L23.7663 29.2297C23.4563 29.438 16.1732 27.5814 16.413 27.1343C16.5387 26.8998 15.1739 26.2222 15.1739 26.2222Z" stroke="#66FF00" stroke-width="0.04"/>
<path fill-rule="evenodd" clip-rule="evenodd" d="M51.1255 13.79C49.5661 13.5303 47.1755 13.3572 45.8858 13.4972C40.1609 14.1189 35.3169 14.9861 30.2048 16.3625C26.4971 17.3607 21.9152 19.3782 19.9311 20.4321C18.1725 21.3662 16.2617 22.6057 14.7992 23.7463C14.1803 24.2357 14.1441 25.4626 14.0842 26.1603C14.0981 26.7752 14.3393 27.2963 15.1235 27.4775C18.0441 28.1518 21.0321 28.9386 23.8423 29.5957C25.2474 29.9243 26.4699 30.2316 27.3065 30.4841C27.6157 30.5774 28.1559 30.7647 28.2497 31.0183C28.6183 31.3063 28.936 31.1639 29.2653 31.1191C30.24 31.1374 30.6257 31.1357 31.0177 31.192C32.494 31.2063 34.3823 31.3749 37.132 29.7072C37.5816 29.9024 40.2203 29.8131 41.6681 29.4301C43.2932 29.0002 44.5562 28.9039 46.4705 27.0325C48.3294 26.1162 50.4127 25.517 51.822 24.3073C52.8963 23.3852 53.8123 22.1746 54.5984 20.7911C55.404 19.3733 55.3885 17.1022 54.7998 16.3438C53.7935 15.0475 52.5945 14.0347 51.1255 13.79ZM41.7184 28.2065C43.6484 27.5818 44.7839 26.7221 46.1284 25.7422C47.6395 25.3226 49.3599 24.2167 50.3784 23.4977C51.9015 22.4225 53.2508 20.9239 53.916 19.3264C54.262 18.4955 54.4143 17.3141 53.9778 16.7074C53.4878 16.0262 52.0612 15.3916 50.7264 15.1712C49.3915 14.9507 47.7947 14.8649 46.6972 14.9841C41.1507 15.5864 35.7331 16.7328 30.8645 18.4531C27.494 19.644 24.9059 20.864 20.9402 22.6108C19.2898 23.3377 17.0172 24.289 17.0023 26.6935C17.1927 27.7977 21.1707 28.5311 23.8488 28.7709C26.0032 29.351 27.8547 29.7846 30.166 30.3089C32.6467 30.0688 34.9366 30.4207 37.2998 28.5935C37.2998 28.5935 40.7734 28.5124 41.7184 28.2065Z" fill="black"/>
<path fill-rule="evenodd" clip-rule="evenodd" d="M49.0623 17.9175C48.5997 17.6714 47.8796 17.361 47.2134 17.2757C45.9332 17.1117 44.5397 17.1631 42.7972 17.2932C39.3123 17.5535 35.287 18.4825 32.5257 19.2854C30.0602 20.0023 27.3929 20.7996 25.0637 21.7683C22.7346 22.7371 20.7394 23.8734 19.6201 25.295C19.3983 25.5767 19.1986 26.0136 19.1992 26.4026C19.1999 26.8301 19.3999 27.153 20.3361 27.624C22.1117 28.5175 28.4558 29.3067 30.4702 29.088C30.6935 29.0637 30.9879 28.8531 30.438 28.8648C28.4931 28.906 24.9683 28.9522 21.6164 27.2508C21.5551 27.2197 20.7753 26.7114 20.8056 26.3915C20.8561 25.8568 21.3015 25.2722 21.4676 25.0959C22.6044 23.8893 23.4433 23.159 25.3252 22.3148C27.6108 21.2895 30.1267 20.2406 32.5908 19.5241C35.3397 18.7247 39.3473 17.977 42.8035 17.7189C44.5316 17.5898 45.6894 17.7472 46.9007 18.0461C48.112 18.345 48.8925 19.1155 49.0103 19.6059C49.1515 20.1937 49.0449 20.906 48.4584 21.6175C47.872 22.329 47.4672 22.8879 46.5801 23.5309C44.806 24.817 42.9339 25.7866 42.9339 25.7866C42.7918 25.9254 42.6392 26.0681 43.0435 26.007C43.0435 26.007 45.1462 25.3151 46.9393 24.0154C47.8358 23.3655 48.7516 22.5344 49.3613 21.7947C49.971 21.0551 50.4321 19.9517 50.2251 19.2474C50.0793 18.7513 49.5926 18.1997 49.0623 17.9175Z" fill="black"/>
<defs>
<filter id="filter0_b_44_26" x="-6.21783" y="18.7213" width="72.7249" height="71.2787" filterUnits="userSpaceOnUse" color-interpolation-filters="sRGB">
<feFlood flood-opacity="0" result="BackgroundImageFix"/>
<feGaussianBlur in="BackgroundImage" stdDeviation="5"/>
<feComposite in2="SourceAlpha" operator="in" result="effect1_backgroundBlur_44_26"/>
<feBlend mode="normal" in="SourceGraphic" in2="effect1_backgroundBlur_44_26" result="shape"/>
</filter>
</defs>
</svg>
